<svg width="91" height="24" viewBox="0 0 91 24" fill="none" xmlns="http://www.w3.org/2000/svg">
<path d="M14.5789 9.81647C14.5789 10.6471 14.4689 11.4483 14.249 12.2202C14.0375 12.9837 13.733 13.7011 13.3354 14.3723C12.9378 15.0351 12.4641 15.6434 11.9143 16.1972C11.3645 16.7425 10.7512 17.2124 10.0745 17.6067C9.3978 18.001 8.67034 18.3073 7.89212 18.5254C7.12236 18.7352 6.31877 18.8401 5.48134 18.8401H0V0.792868H5.48134C6.31877 0.792868 7.12236 0.90194 7.89212 1.12008C8.67034 1.32984 9.3978 1.63188 10.0745 2.02622C10.7512 2.42056 11.3645 2.8946 11.9143 3.44835C12.4641 3.99371 12.9378 4.60199 13.3354 5.2732C13.733 5.93602 14.0375 6.65338 14.249 7.42528C14.4689 8.18878 14.5789 8.98584 14.5789 9.81647ZM10.9373 9.81647C10.9373 9.06974 10.7935 8.36917 10.5059 7.71473C10.2268 7.0603 9.83766 6.48977 9.33859 6.00315C8.84797 5.50813 8.26854 5.11799 7.60029 4.83272C6.9405 4.54746 6.23418 4.40482 5.48134 4.40482H3.66692V15.2281H5.48134C6.23418 15.2281 6.9405 15.0897 7.60029 14.8128C8.26854 14.5275 8.84797 14.1416 9.33859 13.655C9.83766 13.1599 10.2268 12.5852 10.5059 11.9308C10.7935 11.268 10.9373 10.5632 10.9373 9.81647Z" fill="#111111"/>
<path d="M28.9872 11.9811C28.9872 12.9879 28.8053 13.9276 28.4416 14.8002C28.0778 15.6644 27.583 16.4153 26.957 17.053C26.3311 17.6822 25.5952 18.1814 24.7493 18.5506C23.9119 18.9114 23.011 19.0918 22.0467 19.0918C21.0908 19.0918 20.19 18.9114 19.3441 18.5506C18.5066 18.1814 17.7707 17.6822 17.1363 17.053C16.5103 16.4153 16.0155 15.6644 15.6518 14.8002C15.288 13.9276 15.1062 12.9879 15.1062 11.9811C15.1062 10.9575 15.288 10.0094 15.6518 9.13686C16.0155 8.26429 16.5103 7.51337 17.1363 6.88411C17.7707 6.24646 18.5066 5.74725 19.3441 5.38647C20.19 5.02569 21.0908 4.84531 22.0467 4.84531C23.011 4.84531 23.9119 5.0173 24.7493 5.3613C25.5952 5.69691 26.3311 6.17934 26.957 6.8086C27.583 7.42947 28.0778 8.18039 28.4416 9.06135C28.8053 9.93393 28.9872 10.9072 28.9872 11.9811ZM25.4979 11.9811C25.4979 11.4274 25.4048 10.9282 25.2187 10.4835C25.0411 10.0304 24.7958 9.64447 24.4828 9.32564C24.1698 8.99843 23.8019 8.75092 23.3789 8.58311C22.9645 8.40692 22.5204 8.31883 22.0467 8.31883C21.573 8.31883 21.1247 8.40692 20.7017 8.58311C20.2872 8.75092 19.9235 8.99843 19.6105 9.32564C19.306 9.64447 19.0649 10.0304 18.8873 10.4835C18.7097 10.9282 18.6208 11.4274 18.6208 11.9811C18.6208 12.5013 18.7097 12.9837 18.8873 13.4284C19.0649 13.8731 19.306 14.259 19.6105 14.5863C19.9235 14.9135 20.2872 15.1736 20.7017 15.3665C21.1247 15.5511 21.573 15.6434 22.0467 15.6434C22.5204 15.6434 22.9645 15.5553 23.3789 15.3791C23.8019 15.2029 24.1698 14.9554 24.4828 14.6366C24.7958 14.3178 25.0411 13.9318 25.2187 13.4788C25.4048 13.0257 25.4979 12.5265 25.4979 11.9811Z" fill="#111111"/>
<path d="M33.5874 18.8401H30.1235V5.3613H30.961L32.1029 6.95962C32.6612 6.45621 33.2956 6.07027 34.0062 5.80178C34.7167 5.52491 35.4526 5.38647 36.2139 5.38647H39.2718V8.80965H36.2139C35.8502 8.80965 35.5076 8.87677 35.1862 9.01101C34.8647 9.14525 34.5856 9.32984 34.3487 9.56476C34.1119 9.79969 33.9258 10.0766 33.7905 10.3954C33.6551 10.7142 33.5874 11.054 33.5874 11.4148V18.8401Z" fill="#111111"/>
<path d="M52.9823 11.9811C52.9823 12.9879 52.8004 13.9276 52.4367 14.8002C52.0729 15.6644 51.5781 16.4153 50.9521 17.053C50.3262 17.6822 49.5903 18.1814 48.7444 18.5506C47.9069 18.9114 47.0061 19.0918 46.0418 19.0918C45.0859 19.0918 44.185 18.9114 43.3392 18.5506C42.5017 18.1814 41.7658 17.6822 41.1314 17.053C40.5054 16.4153 40.0106 15.6644 39.6469 14.8002C39.2831 13.9276 39.1013 12.9879 39.1013 11.9811C39.1013 10.9575 39.2831 10.0094 39.6469 9.13686C40.0106 8.26429 40.5054 7.51337 41.1314 6.88411C41.7658 6.24646 42.5017 5.74725 43.3392 5.38647C44.185 5.02569 45.0859 4.84531 46.0418 4.84531C47.0061 4.84531 47.9069 5.0173 48.7444 5.3613C49.5903 5.69691 50.3262 6.17934 50.9521 6.8086C51.5781 7.42947 52.0729 8.18039 52.4367 9.06135C52.8004 9.93393 52.9823 10.9072 52.9823 11.9811ZM49.493 11.9811C49.493 11.4274 49.3999 10.9282 49.2138 10.4835C49.0362 10.0304 48.7909 9.64447 48.4779 9.32564C48.1649 8.99843 47.797 8.75092 47.374 8.58311C46.9595 8.40692 46.5155 8.31883 46.0418 8.31883C45.5681 8.31883 45.1197 8.40692 44.6968 8.58311C44.2823 8.75092 43.9186 8.99843 43.6056 9.32564C43.3011 9.64447 43.06 10.0304 42.8824 10.4835C42.7047 10.9282 42.6159 11.4274 42.6159 11.9811C42.6159 12.5013 42.7047 12.9837 42.8824 13.4284C43.06 13.8731 43.3011 14.259 43.6056 14.5863C43.9186 14.9135 44.2823 15.1736 44.6968 15.3665C45.1197 15.5511 45.5681 15.6434 46.0418 15.6434C46.5155 15.6434 46.9595 15.5553 47.374 15.3791C47.797 15.2029 48.1649 14.9554 48.4779 14.6366C48.7909 14.3178 49.0362 13.9318 49.2138 13.4788C49.3999 13.0257 49.493 12.5265 49.493 11.9811Z" fill="#111111"/>
<path d="M60.8307 18.8401C59.9933 18.8401 59.2066 18.6848 58.4707 18.3744C57.7348 18.0556 57.0877 17.6235 56.5294 17.0781C55.9796 16.5244 55.5439 15.8825 55.2225 15.1526C54.9095 14.4227 54.753 13.6424 54.753 12.8117V8.80965H53.0655V5.38647H54.753V0H58.2043V5.38647H63.4572V8.80965H58.2043V12.8117C58.2043 13.1725 58.2719 13.5123 58.4073 13.8311C58.5426 14.1416 58.7287 14.4143 58.9656 14.6492C59.2024 14.8841 59.4815 15.0729 59.803 15.2155C60.1244 15.3498 60.467 15.4169 60.8307 15.4169H63.4572V18.8401H60.8307Z" fill="#111111"/>
<path d="M68.0955 18.8401H64.6316V0H68.0955V5.95281C68.51 5.64237 68.9372 5.42423 69.3771 5.29837C69.8169 5.16413 70.2652 5.09701 70.722 5.09701C71.5594 5.09701 72.3461 5.25642 73.082 5.57525C73.818 5.88568 74.4566 6.31778 74.998 6.87153C75.5478 7.41688 75.9792 8.05873 76.2922 8.79706C76.6136 9.52701 76.7743 10.3073 76.7743 11.1379V18.8401H73.2851V11.1379H73.3104C73.3104 10.7855 73.2428 10.4541 73.1074 10.1437C72.9721 9.82486 72.786 9.54798 72.5491 9.31306C72.3123 9.07813 72.0374 8.89355 71.7244 8.75931C71.4114 8.62507 71.0773 8.55794 70.722 8.55794C70.3583 8.55794 70.0157 8.62507 69.6943 8.75931C69.3728 8.89355 69.0937 9.07813 68.8568 9.31306C68.62 9.54798 68.4339 9.82486 68.2986 10.1437C68.1632 10.4541 68.0955 10.7855 68.0955 11.1379V18.8401Z" fill="#111111"/>
<path d="M81.6411 23.9748V20.5139L83.5697 20.5391C83.908 20.5391 84.2337 20.4845 84.5467 20.3755C84.8597 20.2664 85.1473 20.1154 85.4095 19.9224C85.6802 19.7294 85.917 19.4987 86.12 19.2302C86.323 18.9701 86.488 18.6848 86.6149 18.3744C86.2342 18.5338 85.8451 18.6932 85.4475 18.8526C85.0584 19.0121 84.6651 19.0918 84.2675 19.0918C83.4301 19.0918 82.6434 18.9449 81.9075 18.6513C81.1716 18.3576 80.5245 17.9423 79.9662 17.4053C79.4164 16.86 78.9807 16.2014 78.6593 15.4295C78.3463 14.6492 78.1898 13.7766 78.1898 12.8117V5.3613H81.6411V12.8117C81.6411 13.29 81.7087 13.7095 81.8441 14.0703C81.9879 14.4227 82.1782 14.7205 82.415 14.9638C82.6519 15.1987 82.9268 15.3749 83.2398 15.4924C83.5612 15.6099 83.9038 15.6686 84.2675 15.6686C84.6228 15.6686 84.9569 15.5889 85.2699 15.4295C85.5913 15.2617 85.8705 15.0435 86.1073 14.775C86.3442 14.5066 86.5303 14.2045 86.6656 13.8689C86.801 13.5249 86.8686 13.1725 86.8686 12.8117V5.3613H90.3579V17.1411C90.3495 18.0891 90.1634 18.9785 89.7996 19.8091C89.4359 20.6397 88.9368 21.3655 88.3024 21.9864C87.6765 22.6072 86.9448 23.0981 86.1073 23.4588C85.2699 23.8196 84.3733 24 83.4174 24L81.6411 23.9748Z" fill="#111111"/>
</svg>
