<svg width="592" height="341" viewBox="0 0 592 341" fill="none" xmlns="http://www.w3.org/2000/svg">
<path fill-rule="evenodd" clip-rule="evenodd" d="M582.778 1.04443C587.011 1.04443 590.444 4.31278 590.444 8.34423C590.444 12.3757 587.011 15.6441 582.778 15.6441C578.544 15.6441 575.111 12.3757 575.111 8.34423C575.111 4.31278 578.544 1.04443 582.778 1.04443ZM335.18 8.34423C335.18 4.31278 331.748 1.04443 327.514 1.04443C323.28 1.04443 319.849 4.31278 319.849 8.34423C319.849 12.3757 323.28 15.6441 327.514 15.6441C331.748 15.6441 335.18 12.3757 335.18 8.34423ZM136.211 1.04443C140.445 1.04443 143.877 4.31278 143.877 8.34423C143.877 12.3757 140.445 15.6441 136.211 15.6441C131.977 15.6441 128.545 12.3757 128.545 8.34423C128.545 4.31278 131.977 1.04443 136.211 1.04443ZM122.557 8.34423C122.557 4.31278 119.125 1.04443 114.891 1.04443C110.657 1.04443 107.225 4.31278 107.225 8.34423C107.225 12.3757 110.657 15.6441 114.891 15.6441C119.125 15.6441 122.557 12.3757 122.557 8.34423ZM93.5713 1.04443C97.8049 1.04443 101.237 4.31278 101.237 8.34423C101.237 12.3757 97.8049 15.6441 93.5713 15.6441C89.3377 15.6441 85.9055 12.3757 85.9055 8.34423C85.9055 4.31278 89.3377 1.04443 93.5713 1.04443ZM79.9171 8.34423C79.9171 4.31278 76.4849 1.04443 72.2512 1.04443C68.0177 1.04443 64.5854 4.31278 64.5854 8.34423C64.5854 12.3757 68.0177 15.6441 72.2512 15.6441C76.4849 15.6441 79.9171 12.3757 79.9171 8.34423ZM58.5971 8.34423C58.5971 4.31278 55.1648 1.04443 50.9313 1.04443C46.6976 1.04443 43.2654 4.31278 43.2654 8.34423C43.2654 12.3757 46.6976 15.6441 50.9313 15.6441C55.1648 15.6441 58.5971 12.3757 58.5971 8.34423ZM37.277 28.5089C37.277 24.4775 33.8448 21.2093 29.6111 21.2093C25.3776 21.2093 21.9453 24.4775 21.9453 28.5089C21.9453 32.5403 25.3776 35.8085 29.6111 35.8085C33.8448 35.8085 37.277 32.5403 37.277 28.5089ZM50.9313 21.2093C55.1648 21.2093 58.5971 24.4775 58.5971 28.5089C58.5971 32.5403 55.1648 35.8085 50.9313 35.8085C46.6976 35.8085 43.2654 32.5403 43.2654 28.5089C43.2654 24.4775 46.6976 21.2093 50.9313 21.2093ZM79.9171 28.5089C79.9171 24.4775 76.4849 21.2093 72.2512 21.2093C68.0177 21.2093 64.5854 24.4775 64.5854 28.5089C64.5854 32.5403 68.0177 35.8085 72.2512 35.8085C76.4849 35.8085 79.9171 32.5403 79.9171 28.5089ZM93.5713 21.2093C97.8049 21.2093 101.237 24.4775 101.237 28.5089C101.237 32.5403 97.8049 35.8085 93.5713 35.8085C89.3377 35.8085 85.9055 32.5403 85.9055 28.5089C85.9055 24.4775 89.3377 21.2093 93.5713 21.2093ZM122.557 28.5089C122.557 24.4775 119.125 21.2093 114.891 21.2093C110.657 21.2093 107.225 24.4775 107.225 28.5089C107.225 32.5403 110.657 35.8085 114.891 35.8085C119.125 35.8085 122.557 32.5403 122.557 28.5089ZM136.211 21.2093C140.445 21.2093 143.877 24.4775 143.877 28.5089C143.877 32.5403 140.445 35.8085 136.211 35.8085C131.977 35.8085 128.545 32.5403 128.545 28.5089C128.545 24.4775 131.977 21.2093 136.211 21.2093ZM164.62 28.5089C164.62 24.4775 161.188 21.2093 156.954 21.2093C152.72 21.2093 149.289 24.4775 149.289 28.5089C149.289 32.5403 152.72 35.8085 156.954 35.8085C161.188 35.8085 164.62 32.5403 164.62 28.5089ZM178.274 21.2093C182.508 21.2093 185.941 24.4775 185.941 28.5089C185.941 32.5403 182.508 35.8085 178.274 35.8085C174.041 35.8085 170.61 32.5403 170.61 28.5089C170.61 24.4775 174.041 21.2093 178.274 21.2093ZM207.837 28.5089C207.837 24.4775 204.404 21.2093 200.171 21.2093C195.937 21.2093 192.504 24.4775 192.504 28.5089C192.504 32.5403 195.937 35.8085 200.171 35.8085C204.404 35.8085 207.837 32.5403 207.837 28.5089ZM221.491 21.2093C225.725 21.2093 229.156 24.4775 229.156 28.5089C229.156 32.5403 225.725 35.8085 221.491 35.8085C217.257 35.8085 213.825 32.5403 213.825 28.5089C213.825 24.4775 217.257 21.2093 221.491 21.2093ZM250.477 28.5089C250.477 24.4775 247.044 21.2093 242.81 21.2093C238.577 21.2093 235.145 24.4775 235.145 28.5089C235.145 32.5403 238.577 35.8085 242.81 35.8085C247.044 35.8085 250.477 32.5403 250.477 28.5089ZM264.131 21.2093C268.364 21.2093 271.797 24.4775 271.797 28.5089C271.797 32.5403 268.364 35.8085 264.131 35.8085C259.897 35.8085 256.465 32.5403 256.465 28.5089C256.465 24.4775 259.897 21.2093 264.131 21.2093ZM293.116 28.5089C293.116 24.4775 289.684 21.2093 285.45 21.2093C281.216 21.2093 277.785 24.4775 277.785 28.5089C277.785 32.5403 281.216 35.8085 285.45 35.8085C289.684 35.8085 293.116 32.5403 293.116 28.5089ZM306.195 21.2093C310.428 21.2093 313.861 24.4775 313.861 28.5089C313.861 32.5403 310.428 35.8085 306.195 35.8085C301.961 35.8085 298.53 32.5403 298.53 28.5089C298.53 24.4775 301.961 21.2093 306.195 21.2093ZM335.18 28.5089C335.18 24.4775 331.748 21.2093 327.514 21.2093C323.28 21.2093 319.849 24.4775 319.849 28.5089C319.849 32.5403 323.28 35.8085 327.514 35.8085C331.748 35.8085 335.18 32.5403 335.18 28.5089ZM348.834 21.2093C353.068 21.2093 356.501 24.4775 356.501 28.5089C356.501 32.5403 353.068 35.8085 348.834 35.8085C344.601 35.8085 341.168 32.5403 341.168 28.5089C341.168 24.4775 344.601 21.2093 348.834 21.2093ZM377.82 28.5089C377.82 24.4775 374.387 21.2093 370.154 21.2093C365.92 21.2093 362.489 24.4775 362.489 28.5089C362.489 32.5403 365.92 35.8085 370.154 35.8085C374.387 35.8085 377.82 32.5403 377.82 28.5089ZM562.034 21.2093C566.268 21.2093 569.699 24.4775 569.699 28.5089C569.699 32.5403 566.268 35.8085 562.034 35.8085C557.8 35.8085 554.368 32.5403 554.368 28.5089C554.368 24.4775 557.8 21.2093 562.034 21.2093ZM590.444 28.5089C590.444 24.4775 587.011 21.2093 582.778 21.2093C578.544 21.2093 575.111 24.4775 575.111 28.5089C575.111 32.5403 578.544 35.8085 582.778 35.8085C587.011 35.8085 590.444 32.5403 590.444 28.5089ZM29.6111 41.5113C33.8448 41.5113 37.277 44.7796 37.277 48.811C37.277 52.8425 33.8448 56.1109 29.6111 56.1109C25.3776 56.1109 21.9453 52.8425 21.9453 48.811C21.9453 44.7796 25.3776 41.5113 29.6111 41.5113ZM58.5971 48.811C58.5971 44.7796 55.1648 41.5113 50.9313 41.5113C46.6976 41.5113 43.2654 44.7796 43.2654 48.811C43.2654 52.8425 46.6976 56.1109 50.9313 56.1109C55.1648 56.1109 58.5971 52.8425 58.5971 48.811ZM72.2512 41.5113C76.4849 41.5113 79.9171 44.7796 79.9171 48.811C79.9171 52.8425 76.4849 56.1109 72.2512 56.1109C68.0177 56.1109 64.5854 52.8425 64.5854 48.811C64.5854 44.7796 68.0177 41.5113 72.2512 41.5113ZM101.237 48.811C101.237 44.7796 97.8049 41.5113 93.5713 41.5113C89.3377 41.5113 85.9055 44.7796 85.9055 48.811C85.9055 52.8425 89.3377 56.1109 93.5713 56.1109C97.8049 56.1109 101.237 52.8425 101.237 48.811ZM114.891 41.5113C119.125 41.5113 122.557 44.7796 122.557 48.811C122.557 52.8425 119.125 56.1109 114.891 56.1109C110.657 56.1109 107.225 52.8425 107.225 48.811C107.225 44.7796 110.657 41.5113 114.891 41.5113ZM143.877 48.811C143.877 44.7796 140.445 41.5113 136.211 41.5113C131.977 41.5113 128.545 44.7796 128.545 48.811C128.545 52.8425 131.977 56.1109 136.211 56.1109C140.445 56.1109 143.877 52.8425 143.877 48.811ZM156.954 41.5113C161.188 41.5113 164.62 44.7796 164.62 48.811C164.62 52.8425 161.188 56.1109 156.954 56.1109C152.72 56.1109 149.289 52.8425 149.289 48.811C149.289 44.7796 152.72 41.5113 156.954 41.5113ZM185.941 48.811C185.941 44.7796 182.508 41.5113 178.274 41.5113C174.041 41.5113 170.61 44.7796 170.61 48.811C170.61 52.8425 174.041 56.1109 178.274 56.1109C182.508 56.1109 185.941 52.8425 185.941 48.811ZM200.171 41.5113C204.404 41.5113 207.837 44.7796 207.837 48.811C207.837 52.8425 204.404 56.1109 200.171 56.1109C195.937 56.1109 192.504 52.8425 192.504 48.811C192.504 44.7796 195.937 41.5113 200.171 41.5113ZM229.156 48.811C229.156 44.7796 225.725 41.5113 221.491 41.5113C217.257 41.5113 213.825 44.7796 213.825 48.811C213.825 52.8425 217.257 56.1109 221.491 56.1109C225.725 56.1109 229.156 52.8425 229.156 48.811ZM242.81 41.5113C247.044 41.5113 250.477 44.7796 250.477 48.811C250.477 52.8425 247.044 56.1109 242.81 56.1109C238.577 56.1109 235.145 52.8425 235.145 48.811C235.145 44.7796 238.577 41.5113 242.81 41.5113ZM271.797 48.811C271.797 44.7796 268.364 41.5113 264.131 41.5113C259.897 41.5113 256.465 44.7796 256.465 48.811C256.465 52.8425 259.897 56.1109 264.131 56.1109C268.364 56.1109 271.797 52.8425 271.797 48.811ZM285.45 41.5113C289.684 41.5113 293.116 44.7796 293.116 48.811C293.116 52.8425 289.684 56.1109 285.45 56.1109C281.216 56.1109 277.785 52.8425 277.785 48.811C277.785 44.7796 281.216 41.5113 285.45 41.5113ZM313.861 48.811C313.861 44.7796 310.428 41.5113 306.195 41.5113C301.961 41.5113 298.53 44.7796 298.53 48.811C298.53 52.8425 301.961 56.1109 306.195 56.1109C310.428 56.1109 313.861 52.8425 313.861 48.811ZM327.514 41.5113C331.748 41.5113 335.18 44.7796 335.18 48.811C335.18 52.8425 331.748 56.1109 327.514 56.1109C323.28 56.1109 319.849 52.8425 319.849 48.811C319.849 44.7796 323.28 41.5113 327.514 41.5113ZM356.501 48.811C356.501 44.7796 353.068 41.5113 348.834 41.5113C344.601 41.5113 341.168 44.7796 341.168 48.811C341.168 52.8425 344.601 56.1109 348.834 56.1109C353.068 56.1109 356.501 52.8425 356.501 48.811ZM370.154 41.5113C374.387 41.5113 377.82 44.7796 377.82 48.811C377.82 52.8425 374.387 56.1109 370.154 56.1109C365.92 56.1109 362.489 52.8425 362.489 48.811C362.489 44.7796 365.92 41.5113 370.154 41.5113ZM399.14 48.811C399.14 44.7796 395.708 41.5113 391.474 41.5113C387.24 41.5113 383.808 44.7796 383.808 48.811C383.808 52.8425 387.24 56.1109 391.474 56.1109C395.708 56.1109 399.14 52.8425 399.14 48.811ZM413.37 41.5113C417.604 41.5113 421.037 44.7796 421.037 48.811C421.037 52.8425 417.604 56.1109 413.37 56.1109C409.137 56.1109 405.704 52.8425 405.704 48.811C405.704 44.7796 409.137 41.5113 413.37 41.5113ZM527.059 48.811C527.059 44.7796 523.628 41.5113 519.394 41.5113C515.161 41.5113 511.728 44.7796 511.728 48.811C511.728 52.8425 515.161 56.1109 519.394 56.1109C523.628 56.1109 527.059 52.8425 527.059 48.811ZM540.714 41.5113C544.947 41.5113 548.38 44.7796 548.38 48.811C548.38 52.8425 544.947 56.1109 540.714 56.1109C536.48 56.1109 533.047 52.8425 533.047 48.811C533.047 44.7796 536.48 41.5113 540.714 41.5113ZM569.699 48.811C569.699 44.7796 566.268 41.5113 562.034 41.5113C557.8 41.5113 554.368 44.7796 554.368 48.811C554.368 52.8425 557.8 56.1109 562.034 56.1109C566.268 56.1109 569.699 52.8425 569.699 48.811ZM29.6111 62.2248C33.8448 62.2248 37.277 65.493 37.277 69.5246C37.277 73.556 33.8448 76.8243 29.6111 76.8243C25.3776 76.8243 21.9453 73.556 21.9453 69.5246C21.9453 65.493 25.3776 62.2248 29.6111 62.2248ZM58.5971 69.5246C58.5971 65.493 55.1648 62.2248 50.9313 62.2248C46.6976 62.2248 43.2654 65.493 43.2654 69.5246C43.2654 73.556 46.6976 76.8243 50.9313 76.8243C55.1648 76.8243 58.5971 73.556 58.5971 69.5246ZM72.2512 62.2248C76.4849 62.2248 79.9171 65.493 79.9171 69.5246C79.9171 73.556 76.4849 76.8243 72.2512 76.8243C68.0177 76.8243 64.5854 73.556 64.5854 69.5246C64.5854 65.493 68.0177 62.2248 72.2512 62.2248ZM101.237 69.5246C101.237 65.493 97.8049 62.2248 93.5713 62.2248C89.3377 62.2248 85.9055 65.493 85.9055 69.5246C85.9055 73.556 89.3377 76.8243 93.5713 76.8243C97.8049 76.8243 101.237 73.556 101.237 69.5246ZM114.891 62.2248C119.125 62.2248 122.557 65.493 122.557 69.5246C122.557 73.556 119.125 76.8243 114.891 76.8243C110.657 76.8243 107.225 73.556 107.225 69.5246C107.225 65.493 110.657 62.2248 114.891 62.2248ZM143.877 69.5246C143.877 65.493 140.445 62.2248 136.211 62.2248C131.977 62.2248 128.545 65.493 128.545 69.5246C128.545 73.556 131.977 76.8243 136.211 76.8243C140.445 76.8243 143.877 73.556 143.877 69.5246ZM156.954 62.2248C161.188 62.2248 164.62 65.493 164.62 69.5246C164.62 73.556 161.188 76.8243 156.954 76.8243C152.72 76.8243 149.289 73.556 149.289 69.5246C149.289 65.493 152.72 62.2248 156.954 62.2248ZM185.941 69.5246C185.941 65.493 182.508 62.2248 178.274 62.2248C174.041 62.2248 170.61 65.493 170.61 69.5246C170.61 73.556 174.041 76.8243 178.274 76.8243C182.508 76.8243 185.941 73.556 185.941 69.5246ZM200.171 62.2248C204.404 62.2248 207.837 65.493 207.837 69.5246C207.837 73.556 204.404 76.8243 200.171 76.8243C195.937 76.8243 192.504 73.556 192.504 69.5246C192.504 65.493 195.937 62.2248 200.171 62.2248ZM229.156 69.5246C229.156 65.493 225.725 62.2248 221.491 62.2248C217.257 62.2248 213.825 65.493 213.825 69.5246C213.825 73.556 217.257 76.8243 221.491 76.8243C225.725 76.8243 229.156 73.556 229.156 69.5246ZM242.81 62.2248C247.044 62.2248 250.477 65.493 250.477 69.5246C250.477 73.556 247.044 76.8243 242.81 76.8243C238.577 76.8243 235.145 73.556 235.145 69.5246C235.145 65.493 238.577 62.2248 242.81 62.2248ZM271.797 69.5246C271.797 65.493 268.364 62.2248 264.131 62.2248C259.897 62.2248 256.465 65.493 256.465 69.5246C256.465 73.556 259.897 76.8243 264.131 76.8243C268.364 76.8243 271.797 73.556 271.797 69.5246ZM285.45 62.2248C289.684 62.2248 293.116 65.493 293.116 69.5246C293.116 73.556 289.684 76.8243 285.45 76.8243C281.216 76.8243 277.785 73.556 277.785 69.5246C277.785 65.493 281.216 62.2248 285.45 62.2248ZM313.861 69.5246C313.861 65.493 310.428 62.2248 306.195 62.2248C301.961 62.2248 298.53 65.493 298.53 69.5246C298.53 73.556 301.961 76.8243 306.195 76.8243C310.428 76.8243 313.861 73.556 313.861 69.5246ZM327.514 62.2248C331.748 62.2248 335.18 65.493 335.18 69.5246C335.18 73.556 331.748 76.8243 327.514 76.8243C323.28 76.8243 319.849 73.556 319.849 69.5246C319.849 65.493 323.28 62.2248 327.514 62.2248ZM356.501 69.5246C356.501 65.493 353.068 62.2248 348.834 62.2248C344.601 62.2248 341.168 65.493 341.168 69.5246C341.168 73.556 344.601 76.8243 348.834 76.8243C353.068 76.8243 356.501 73.556 356.501 69.5246ZM370.154 62.2248C374.387 62.2248 377.82 65.493 377.82 69.5246C377.82 73.556 374.387 76.8243 370.154 76.8243C365.92 76.8243 362.489 73.556 362.489 69.5246C362.489 65.493 365.92 62.2248 370.154 62.2248ZM399.14 69.5246C399.14 65.493 395.708 62.2248 391.474 62.2248C387.24 62.2248 383.808 65.493 383.808 69.5246C383.808 73.556 387.24 76.8243 391.474 76.8243C395.708 76.8243 399.14 73.556 399.14 69.5246ZM434.114 62.2248C438.347 62.2248 441.78 65.493 441.78 69.5246C441.78 73.556 438.347 76.8243 434.114 76.8243C429.88 76.8243 426.447 73.556 426.447 69.5246C426.447 65.493 429.88 62.2248 434.114 62.2248ZM527.059 69.5246C527.059 65.493 523.628 62.2248 519.394 62.2248C515.161 62.2248 511.728 65.493 511.728 69.5246C511.728 73.556 515.161 76.8243 519.394 76.8243C523.628 76.8243 527.059 73.556 527.059 69.5246ZM540.714 62.2248C544.947 62.2248 548.38 65.493 548.38 69.5246C548.38 73.556 544.947 76.8243 540.714 76.8243C536.48 76.8243 533.047 73.556 533.047 69.5246C533.047 65.493 536.48 62.2248 540.714 62.2248ZM569.699 69.5246C569.699 65.493 566.268 62.2248 562.034 62.2248C557.8 62.2248 554.368 65.493 554.368 69.5246C554.368 73.556 557.8 76.8243 562.034 76.8243C566.268 76.8243 569.699 73.556 569.699 69.5246ZM72.2512 82.5268C76.4849 82.5268 79.9171 85.7951 79.9171 89.8265C79.9171 93.8579 76.4849 97.1263 72.2512 97.1263C68.0177 97.1263 64.5854 93.8579 64.5854 89.8265C64.5854 85.7951 68.0177 82.5268 72.2512 82.5268ZM101.237 89.8265C101.237 85.7951 97.8049 82.5268 93.5713 82.5268C89.3377 82.5268 85.9055 85.7951 85.9055 89.8265C85.9055 93.8579 89.3377 97.1263 93.5713 97.1263C97.8049 97.1263 101.237 93.8579 101.237 89.8265ZM178.274 82.5268C182.508 82.5268 185.941 85.7951 185.941 89.8265C185.941 93.8579 182.508 97.1263 178.274 97.1263C174.041 97.1263 170.61 93.8579 170.61 89.8265C170.61 85.7951 174.041 82.5268 178.274 82.5268ZM207.837 89.8265C207.837 85.7951 204.404 82.5268 200.171 82.5268C195.937 82.5268 192.504 85.7951 192.504 89.8265C192.504 93.8579 195.937 97.1263 200.171 97.1263C204.404 97.1263 207.837 93.8579 207.837 89.8265ZM221.491 82.5268C225.725 82.5268 229.156 85.7951 229.156 89.8265C229.156 93.8579 225.725 97.1263 221.491 97.1263C217.257 97.1263 213.825 93.8579 213.825 89.8265C213.825 85.7951 217.257 82.5268 221.491 82.5268ZM250.477 89.8265C250.477 85.7951 247.044 82.5268 242.81 82.5268C238.577 82.5268 235.145 85.7951 235.145 89.8265C235.145 93.8579 238.577 97.1263 242.81 97.1263C247.044 97.1263 250.477 93.8579 250.477 89.8265ZM264.131 82.5268C268.364 82.5268 271.797 85.7951 271.797 89.8265C271.797 93.8579 268.364 97.1263 264.131 97.1263C259.897 97.1263 256.465 93.8579 256.465 89.8265C256.465 85.7951 259.897 82.5268 264.131 82.5268ZM293.116 89.8265C293.116 85.7951 289.684 82.5268 285.45 82.5268C281.216 82.5268 277.785 85.7951 277.785 89.8265C277.785 93.8579 281.216 97.1263 285.45 97.1263C289.684 97.1263 293.116 93.8579 293.116 89.8265ZM306.195 82.5268C310.428 82.5268 313.861 85.7951 313.861 89.8265C313.861 93.8579 310.428 97.1263 306.195 97.1263C301.961 97.1263 298.53 93.8579 298.53 89.8265C298.53 85.7951 301.961 82.5268 306.195 82.5268ZM335.18 89.8265C335.18 85.7951 331.748 82.5268 327.514 82.5268C323.28 82.5268 319.849 85.7951 319.849 89.8265C319.849 93.8579 323.28 97.1263 327.514 97.1263C331.748 97.1263 335.18 93.8579 335.18 89.8265ZM348.834 82.5268C353.068 82.5268 356.501 85.7951 356.501 89.8265C356.501 93.8579 353.068 97.1263 348.834 97.1263C344.601 97.1263 341.168 93.8579 341.168 89.8265C341.168 85.7951 344.601 82.5268 348.834 82.5268ZM377.82 89.8265C377.82 85.7951 374.387 82.5268 370.154 82.5268C365.92 82.5268 362.489 85.7951 362.489 89.8265C362.489 93.8579 365.92 97.1263 370.154 97.1263C374.387 97.1263 377.82 93.8579 377.82 89.8265ZM391.474 82.5268C395.708 82.5268 399.14 85.7951 399.14 89.8265C399.14 93.8579 395.708 97.1263 391.474 97.1263C387.24 97.1263 383.808 93.8579 383.808 89.8265C383.808 85.7951 387.24 82.5268 391.474 82.5268ZM421.037 89.8265C421.037 85.7951 417.604 82.5268 413.37 82.5268C409.137 82.5268 405.704 85.7951 405.704 89.8265C405.704 93.8579 409.137 97.1263 413.37 97.1263C417.604 97.1263 421.037 93.8579 421.037 89.8265ZM434.114 82.5268C438.347 82.5268 441.78 85.7951 441.78 89.8265C441.78 93.8579 438.347 97.1263 434.114 97.1263C429.88 97.1263 426.447 93.8579 426.447 89.8265C426.447 85.7951 429.88 82.5268 434.114 82.5268ZM463.099 89.8265C463.099 85.7951 459.668 82.5268 455.434 82.5268C451.201 82.5268 447.768 85.7951 447.768 89.8265C447.768 93.8579 451.201 97.1263 455.434 97.1263C459.668 97.1263 463.099 93.8579 463.099 89.8265ZM498.074 82.5268C502.308 82.5268 505.74 85.7951 505.74 89.8265C505.74 93.8579 502.308 97.1263 498.074 97.1263C493.84 97.1263 490.408 93.8579 490.408 89.8265C490.408 85.7951 493.84 82.5268 498.074 82.5268ZM527.059 89.8265C527.059 85.7951 523.628 82.5268 519.394 82.5268C515.161 82.5268 511.728 85.7951 511.728 89.8265C511.728 93.8579 515.161 97.1263 519.394 97.1263C523.628 97.1263 527.059 93.8579 527.059 89.8265ZM540.714 82.5268C544.947 82.5268 548.38 85.7951 548.38 89.8265C548.38 93.8579 544.947 97.1263 540.714 97.1263C536.48 97.1263 533.047 93.8579 533.047 89.8265C533.047 85.7951 536.48 82.5268 540.714 82.5268ZM569.699 89.8265C569.699 85.7951 566.268 82.5268 562.034 82.5268C557.8 82.5268 554.368 85.7951 554.368 89.8265C554.368 93.8579 557.8 97.1263 562.034 97.1263C566.268 97.1263 569.699 93.8579 569.699 89.8265ZM200.171 102.692C204.404 102.692 207.837 105.96 207.837 109.991C207.837 114.023 204.404 117.291 200.171 117.291C195.937 117.291 192.504 114.023 192.504 109.991C192.504 105.96 195.937 102.692 200.171 102.692ZM229.156 109.991C229.156 105.96 225.725 102.692 221.491 102.692C217.257 102.692 213.825 105.96 213.825 109.991C213.825 114.023 217.257 117.291 221.491 117.291C225.725 117.291 229.156 114.023 229.156 109.991ZM242.81 102.692C247.044 102.692 250.477 105.96 250.477 109.991C250.477 114.023 247.044 117.291 242.81 117.291C238.577 117.291 235.145 114.023 235.145 109.991C235.145 105.96 238.577 102.692 242.81 102.692ZM271.797 109.991C271.797 105.96 268.364 102.692 264.131 102.692C259.897 102.692 256.465 105.96 256.465 109.991C256.465 114.023 259.897 117.291 264.131 117.291C268.364 117.291 271.797 114.023 271.797 109.991ZM285.45 102.692C289.684 102.692 293.116 105.96 293.116 109.991C293.116 114.023 289.684 117.291 285.45 117.291C281.216 117.291 277.785 114.023 277.785 109.991C277.785 105.96 281.216 102.692 285.45 102.692ZM313.861 109.991C313.861 105.96 310.428 102.692 306.195 102.692C301.961 102.692 298.53 105.96 298.53 109.991C298.53 114.023 301.961 117.291 306.195 117.291C310.428 117.291 313.861 114.023 313.861 109.991ZM327.514 102.692C331.748 102.692 335.18 105.96 335.18 109.991C335.18 114.023 331.748 117.291 327.514 117.291C323.28 117.291 319.849 114.023 319.849 109.991C319.849 105.96 323.28 102.692 327.514 102.692ZM356.501 109.991C356.501 105.96 353.068 102.692 348.834 102.692C344.601 102.692 341.168 105.96 341.168 109.991C341.168 114.023 344.601 117.291 348.834 117.291C353.068 117.291 356.501 114.023 356.501 109.991ZM370.154 102.692C374.387 102.692 377.82 105.96 377.82 109.991C377.82 114.023 374.387 117.291 370.154 117.291C365.92 117.291 362.489 114.023 362.489 109.991C362.489 105.96 365.92 102.692 370.154 102.692ZM399.14 109.991C399.14 105.96 395.708 102.692 391.474 102.692C387.24 102.692 383.808 105.96 383.808 109.991C383.808 114.023 387.24 117.291 391.474 117.291C395.708 117.291 399.14 114.023 399.14 109.991ZM434.114 102.692C438.347 102.692 441.78 105.96 441.78 109.991C441.78 114.023 438.347 117.291 434.114 117.291C429.88 117.291 426.447 114.023 426.447 109.991C426.447 105.96 429.88 102.692 434.114 102.692ZM463.099 109.991C463.099 105.96 459.668 102.692 455.434 102.692C451.201 102.692 447.768 105.96 447.768 109.991C447.768 114.023 451.201 117.291 455.434 117.291C459.668 117.291 463.099 114.023 463.099 109.991ZM476.753 102.692C480.987 102.692 484.42 105.96 484.42 109.991C484.42 114.023 480.987 117.291 476.753 117.291C472.52 117.291 469.089 114.023 469.089 109.991C469.089 105.96 472.52 102.692 476.753 102.692ZM505.74 109.991C505.74 105.96 502.308 102.692 498.074 102.692C493.84 102.692 490.408 105.96 490.408 109.991C490.408 114.023 493.84 117.291 498.074 117.291C502.308 117.291 505.74 114.023 505.74 109.991ZM519.394 102.692C523.628 102.692 527.059 105.96 527.059 109.991C527.059 114.023 523.628 117.291 519.394 117.291C515.161 117.291 511.728 114.023 511.728 109.991C511.728 105.96 515.161 102.692 519.394 102.692ZM548.38 109.991C548.38 105.96 544.947 102.692 540.714 102.692C536.48 102.692 533.047 105.96 533.047 109.991C533.047 114.023 536.48 117.291 540.714 117.291C544.947 117.291 548.38 114.023 548.38 109.991ZM285.45 122.856C289.684 122.856 293.116 126.125 293.116 130.156C293.116 134.188 289.684 137.456 285.45 137.456C281.216 137.456 277.785 134.188 277.785 130.156C277.785 126.125 281.216 122.856 285.45 122.856ZM313.861 130.156C313.861 126.125 310.428 122.856 306.195 122.856C301.961 122.856 298.53 126.125 298.53 130.156C298.53 134.188 301.961 137.456 306.195 137.456C310.428 137.456 313.861 134.188 313.861 130.156ZM327.514 122.856C331.748 122.856 335.18 126.125 335.18 130.156C335.18 134.188 331.748 137.456 327.514 137.456C323.28 137.456 319.849 134.188 319.849 130.156C319.849 126.125 323.28 122.856 327.514 122.856ZM463.099 130.156C463.099 126.125 459.668 122.856 455.434 122.856C451.201 122.856 447.768 126.125 447.768 130.156C447.768 134.188 451.201 137.456 455.434 137.456C459.668 137.456 463.099 134.188 463.099 130.156Z" fill="#ACACAC"/>
<mask id="mask0" mask-type="alpha" maskUnits="userSpaceOnUse" x="1" y="82" width="548" height="259">
<path fill-rule="evenodd" clip-rule="evenodd" d="M164.622 89.8266C164.622 85.7952 161.189 82.5269 156.955 82.5269C152.722 82.5269 149.29 85.7952 149.29 89.8266C149.29 93.8581 152.722 97.1265 156.955 97.1265C161.189 97.1265 164.622 93.8581 164.622 89.8266ZM136.212 82.5269C140.446 82.5269 143.878 85.7952 143.878 89.8266C143.878 93.8581 140.446 97.1265 136.212 97.1265C131.979 97.1265 128.547 93.8581 128.547 89.8266C128.547 85.7952 131.979 82.5269 136.212 82.5269ZM122.558 89.8266C122.558 85.7952 119.126 82.5269 114.892 82.5269C110.659 82.5269 107.227 85.7952 107.227 89.8266C107.227 93.8581 110.659 97.1265 114.892 97.1265C119.126 97.1265 122.558 93.8581 122.558 89.8266ZM50.9327 82.5269C55.1662 82.5269 58.5985 85.7952 58.5985 89.8266C58.5985 93.8581 55.1662 97.1265 50.9327 97.1265C46.699 97.1265 43.2668 93.8581 43.2668 89.8266C43.2668 85.7952 46.699 82.5269 50.9327 82.5269ZM37.2784 89.8266C37.2784 85.7952 33.8462 82.5269 29.6126 82.5269C25.379 82.5269 21.9467 85.7952 21.9467 89.8266C21.9467 93.8581 25.379 97.1265 29.6126 97.1265C33.8462 97.1265 37.2784 93.8581 37.2784 89.8266ZM16.5347 89.8266C16.5347 85.7952 13.1025 82.5269 8.86894 82.5269C4.63535 82.5269 1.20312 85.7952 1.20312 89.8266C1.20312 93.8581 4.63535 97.1265 8.86894 97.1265C13.1025 97.1265 16.5347 93.8581 16.5347 89.8266ZM8.86894 102.692C13.1025 102.692 16.5347 105.96 16.5347 109.991C16.5347 114.023 13.1025 117.291 8.86894 117.291C4.63535 117.291 1.20312 114.023 1.20312 109.991C1.20312 105.96 4.63535 102.692 8.86894 102.692ZM37.2784 109.991C37.2784 105.96 33.8462 102.692 29.6126 102.692C25.379 102.692 21.9467 105.96 21.9467 109.991C21.9467 114.023 25.379 117.291 29.6126 117.291C33.8462 117.291 37.2784 114.023 37.2784 109.991ZM50.9327 102.692C55.1662 102.692 58.5985 105.96 58.5985 109.991C58.5985 114.023 55.1662 117.291 50.9327 117.291C46.699 117.291 43.2668 114.023 43.2668 109.991C43.2668 105.96 46.699 102.692 50.9327 102.692ZM79.9185 109.991C79.9185 105.96 76.4863 102.692 72.2527 102.692C68.0191 102.692 64.5868 105.96 64.5868 109.991C64.5868 114.023 68.0191 117.291 72.2527 117.291C76.4863 117.291 79.9185 114.023 79.9185 109.991ZM93.5728 102.692C97.8063 102.692 101.238 105.96 101.238 109.991C101.238 114.023 97.8063 117.291 93.5728 117.291C89.3391 117.291 85.9069 114.023 85.9069 109.991C85.9069 105.96 89.3391 102.692 93.5728 102.692ZM122.558 109.991C122.558 105.96 119.126 102.692 114.892 102.692C110.659 102.692 107.227 105.96 107.227 109.991C107.227 114.023 110.659 117.291 114.892 117.291C119.126 117.291 122.558 114.023 122.558 109.991ZM136.212 102.692C140.446 102.692 143.878 105.96 143.878 109.991C143.878 114.023 140.446 117.291 136.212 117.291C131.979 117.291 128.547 114.023 128.547 109.991C128.547 105.96 131.979 102.692 136.212 102.692ZM164.622 109.991C164.622 105.96 161.189 102.692 156.955 102.692C152.722 102.692 149.29 105.96 149.29 109.991C149.29 114.023 152.722 117.291 156.955 117.291C161.189 117.291 164.622 114.023 164.622 109.991ZM178.276 102.692C182.509 102.692 185.942 105.96 185.942 109.991C185.942 114.023 182.509 117.291 178.276 117.291C174.042 117.291 170.611 114.023 170.611 109.991C170.611 105.96 174.042 102.692 178.276 102.692ZM421.038 109.991C421.038 105.96 417.605 102.692 413.372 102.692C409.138 102.692 405.705 105.96 405.705 109.991C405.705 114.023 409.138 117.291 413.372 117.291C417.605 117.291 421.038 114.023 421.038 109.991ZM8.86894 122.856C13.1025 122.856 16.5347 126.125 16.5347 130.156C16.5347 134.188 13.1025 137.456 8.86894 137.456C4.63535 137.456 1.20312 134.188 1.20312 130.156C1.20312 126.125 4.63535 122.856 8.86894 122.856ZM37.2784 130.156C37.2784 126.125 33.8462 122.856 29.6126 122.856C25.379 122.856 21.9467 126.125 21.9467 130.156C21.9467 134.188 25.379 137.456 29.6126 137.456C33.8462 137.456 37.2784 134.188 37.2784 130.156ZM50.9327 122.856C55.1662 122.856 58.5985 126.125 58.5985 130.156C58.5985 134.188 55.1662 137.456 50.9327 137.456C46.699 137.456 43.2668 134.188 43.2668 130.156C43.2668 126.125 46.699 122.856 50.9327 122.856ZM79.9185 130.156C79.9185 126.125 76.4863 122.856 72.2527 122.856C68.0191 122.856 64.5868 126.125 64.5868 130.156C64.5868 134.188 68.0191 137.456 72.2527 137.456C76.4863 137.456 79.9185 134.188 79.9185 130.156ZM93.5728 122.856C97.8063 122.856 101.238 126.125 101.238 130.156C101.238 134.188 97.8063 137.456 93.5728 137.456C89.3391 137.456 85.9069 134.188 85.9069 130.156C85.9069 126.125 89.3391 122.856 93.5728 122.856ZM122.558 130.156C122.558 126.125 119.126 122.856 114.892 122.856C110.659 122.856 107.227 126.125 107.227 130.156C107.227 134.188 110.659 137.456 114.892 137.456C119.126 137.456 122.558 134.188 122.558 130.156ZM136.212 122.856C140.446 122.856 143.878 126.125 143.878 130.156C143.878 134.188 140.446 137.456 136.212 137.456C131.979 137.456 128.547 134.188 128.547 130.156C128.547 126.125 131.979 122.856 136.212 122.856ZM164.622 130.156C164.622 126.125 161.189 122.856 156.955 122.856C152.722 122.856 149.29 126.125 149.29 130.156C149.29 134.188 152.722 137.456 156.955 137.456C161.189 137.456 164.622 134.188 164.622 130.156ZM178.276 122.856C182.509 122.856 185.942 126.125 185.942 130.156C185.942 134.188 182.509 137.456 178.276 137.456C174.042 137.456 170.611 134.188 170.611 130.156C170.611 126.125 174.042 122.856 178.276 122.856ZM207.838 130.156C207.838 126.125 204.406 122.856 200.172 122.856C195.938 122.856 192.506 126.125 192.506 130.156C192.506 134.188 195.938 137.456 200.172 137.456C204.406 137.456 207.838 134.188 207.838 130.156ZM221.493 122.856C225.726 122.856 229.157 126.125 229.157 130.156C229.157 134.188 225.726 137.456 221.493 137.456C217.259 137.456 213.826 134.188 213.826 130.156C213.826 126.125 217.259 122.856 221.493 122.856ZM250.478 130.156C250.478 126.125 247.045 122.856 242.812 122.856C238.578 122.856 235.147 126.125 235.147 130.156C235.147 134.188 238.578 137.456 242.812 137.456C247.045 137.456 250.478 134.188 250.478 130.156ZM264.132 122.856C268.366 122.856 271.798 126.125 271.798 130.156C271.798 134.188 268.366 137.456 264.132 137.456C259.899 137.456 256.466 134.188 256.466 130.156C256.466 126.125 259.899 122.856 264.132 122.856ZM356.502 130.156C356.502 126.125 353.069 122.856 348.836 122.856C344.602 122.856 341.17 126.125 341.17 130.156C341.17 134.188 344.602 137.456 348.836 137.456C353.069 137.456 356.502 134.188 356.502 130.156ZM370.155 122.856C374.389 122.856 377.821 126.125 377.821 130.156C377.821 134.188 374.389 137.456 370.155 137.456C365.921 137.456 362.49 134.188 362.49 130.156C362.49 126.125 365.921 122.856 370.155 122.856ZM399.142 130.156C399.142 126.125 395.709 122.856 391.475 122.856C387.242 122.856 383.809 126.125 383.809 130.156C383.809 134.188 387.242 137.456 391.475 137.456C395.709 137.456 399.142 134.188 399.142 130.156ZM413.372 122.856C417.605 122.856 421.038 126.125 421.038 130.156C421.038 134.188 417.605 137.456 413.372 137.456C409.138 137.456 405.705 134.188 405.705 130.156C405.705 126.125 409.138 122.856 413.372 122.856ZM441.781 130.156C441.781 126.125 438.349 122.856 434.115 122.856C429.881 122.856 426.449 126.125 426.449 130.156C426.449 134.188 429.881 137.456 434.115 137.456C438.349 137.456 441.781 134.188 441.781 130.156ZM476.755 122.856C480.988 122.856 484.421 126.125 484.421 130.156C484.421 134.188 480.988 137.456 476.755 137.456C472.521 137.456 469.09 134.188 469.09 130.156C469.09 126.125 472.521 122.856 476.755 122.856ZM505.742 130.156C505.742 126.125 502.309 122.856 498.075 122.856C493.842 122.856 490.409 126.125 490.409 130.156C490.409 134.188 493.842 137.456 498.075 137.456C502.309 137.456 505.742 134.188 505.742 130.156ZM519.396 122.856C523.63 122.856 527.061 126.125 527.061 130.156C527.061 134.188 523.63 137.456 519.396 137.456C515.162 137.456 511.73 134.188 511.73 130.156C511.73 126.125 515.162 122.856 519.396 122.856ZM548.381 130.156C548.381 126.125 544.949 122.856 540.715 122.856C536.481 122.856 533.049 126.125 533.049 130.156C533.049 134.188 536.481 137.456 540.715 137.456C544.949 137.456 548.381 134.188 548.381 130.156ZM29.6126 143.159C33.8462 143.159 37.2784 146.427 37.2784 150.459C37.2784 154.49 33.8462 157.757 29.6126 157.757C25.379 157.757 21.9467 154.49 21.9467 150.459C21.9467 146.427 25.379 143.159 29.6126 143.159ZM58.5985 150.459C58.5985 146.427 55.1662 143.159 50.9327 143.159C46.699 143.159 43.2668 146.427 43.2668 150.459C43.2668 154.49 46.699 157.757 50.9327 157.757C55.1662 157.757 58.5985 154.49 58.5985 150.459ZM72.2527 143.159C76.4863 143.159 79.9185 146.427 79.9185 150.459C79.9185 154.49 76.4863 157.757 72.2527 157.757C68.0191 157.757 64.5868 154.49 64.5868 150.459C64.5868 146.427 68.0191 143.159 72.2527 143.159ZM101.238 150.459C101.238 146.427 97.8063 143.159 93.5728 143.159C89.3391 143.159 85.9069 146.427 85.9069 150.459C85.9069 154.49 89.3391 157.757 93.5728 157.757C97.8063 157.757 101.238 154.49 101.238 150.459ZM114.892 143.159C119.126 143.159 122.558 146.427 122.558 150.459C122.558 154.49 119.126 157.757 114.892 157.757C110.659 157.757 107.227 154.49 107.227 150.459C107.227 146.427 110.659 143.159 114.892 143.159ZM143.878 150.459C143.878 146.427 140.446 143.159 136.212 143.159C131.979 143.159 128.547 146.427 128.547 150.459C128.547 154.49 131.979 157.757 136.212 157.757C140.446 157.757 143.878 154.49 143.878 150.459ZM156.955 143.159C161.189 143.159 164.622 146.427 164.622 150.459C164.622 154.49 161.189 157.757 156.955 157.757C152.722 157.757 149.29 154.49 149.29 150.459C149.29 146.427 152.722 143.159 156.955 143.159ZM185.942 150.459C185.942 146.427 182.509 143.159 178.276 143.159C174.042 143.159 170.611 146.427 170.611 150.459C170.611 154.49 174.042 157.757 178.276 157.757C182.509 157.757 185.942 154.49 185.942 150.459ZM200.172 143.159C204.406 143.159 207.838 146.427 207.838 150.459C207.838 154.49 204.406 157.757 200.172 157.757C195.938 157.757 192.506 154.49 192.506 150.459C192.506 146.427 195.938 143.159 200.172 143.159ZM229.157 150.459C229.157 146.427 225.726 143.159 221.493 143.159C217.259 143.159 213.826 146.427 213.826 150.459C213.826 154.49 217.259 157.757 221.493 157.757C225.726 157.757 229.157 154.49 229.157 150.459ZM242.812 143.159C247.045 143.159 250.478 146.427 250.478 150.459C250.478 154.49 247.045 157.757 242.812 157.757C238.578 157.757 235.147 154.49 235.147 150.459C235.147 146.427 238.578 143.159 242.812 143.159ZM271.798 150.459C271.798 146.427 268.366 143.159 264.132 143.159C259.899 143.159 256.466 146.427 256.466 150.459C256.466 154.49 259.899 157.757 264.132 157.757C268.366 157.757 271.798 154.49 271.798 150.459ZM285.451 143.159C289.685 143.159 293.118 146.427 293.118 150.459C293.118 154.49 289.685 157.757 285.451 157.757C281.218 157.757 277.786 154.49 277.786 150.459C277.786 146.427 281.218 143.159 285.451 143.159ZM313.862 150.459C313.862 146.427 310.43 143.159 306.196 143.159C301.962 143.159 298.531 146.427 298.531 150.459C298.531 154.49 301.962 157.757 306.196 157.757C310.43 157.757 313.862 154.49 313.862 150.459ZM327.515 143.159C331.749 143.159 335.182 146.427 335.182 150.459C335.182 154.49 331.749 157.757 327.515 157.757C323.282 157.757 319.85 154.49 319.85 150.459C319.85 146.427 323.282 143.159 327.515 143.159ZM356.502 150.459C356.502 146.427 353.069 143.159 348.836 143.159C344.602 143.159 341.17 146.427 341.17 150.459C341.17 154.49 344.602 157.757 348.836 157.757C353.069 157.757 356.502 154.49 356.502 150.459ZM370.155 143.159C374.389 143.159 377.821 146.427 377.821 150.459C377.821 154.49 374.389 157.757 370.155 157.757C365.921 157.757 362.49 154.49 362.49 150.459C362.49 146.427 365.921 143.159 370.155 143.159ZM399.142 150.459C399.142 146.427 395.709 143.159 391.475 143.159C387.242 143.159 383.809 146.427 383.809 150.459C383.809 154.49 387.242 157.757 391.475 157.757C395.709 157.757 399.142 154.49 399.142 150.459ZM413.372 143.159C417.605 143.159 421.038 146.427 421.038 150.459C421.038 154.49 417.605 157.757 413.372 157.757C409.138 157.757 405.705 154.49 405.705 150.459C405.705 146.427 409.138 143.159 413.372 143.159ZM441.781 150.459C441.781 146.427 438.349 143.159 434.115 143.159C429.881 143.159 426.449 146.427 426.449 150.459C426.449 154.49 429.881 157.757 434.115 157.757C438.349 157.757 441.781 154.49 441.781 150.459ZM455.436 143.159C459.669 143.159 463.1 146.427 463.1 150.459C463.1 154.49 459.669 157.757 455.436 157.757C451.202 157.757 447.769 154.49 447.769 150.459C447.769 146.427 451.202 143.159 455.436 143.159ZM484.421 150.459C484.421 146.427 480.988 143.159 476.755 143.159C472.521 143.159 469.09 146.427 469.09 150.459C469.09 154.49 472.521 157.757 476.755 157.757C480.988 157.757 484.421 154.49 484.421 150.459ZM498.075 143.159C502.309 143.159 505.742 146.427 505.742 150.459C505.742 154.49 502.309 157.757 498.075 157.757C493.842 157.757 490.409 154.49 490.409 150.459C490.409 146.427 493.842 143.159 498.075 143.159ZM527.061 150.459C527.061 146.427 523.63 143.159 519.396 143.159C515.162 143.159 511.73 146.427 511.73 150.459C511.73 154.49 515.162 157.757 519.396 157.757C523.63 157.757 527.061 154.49 527.061 150.459ZM540.715 143.159C544.949 143.159 548.381 146.427 548.381 150.459C548.381 154.49 544.949 157.757 540.715 157.757C536.481 157.757 533.049 154.49 533.049 150.459C533.049 146.427 536.481 143.159 540.715 143.159ZM37.2784 170.624C37.2784 166.592 33.8462 163.323 29.6126 163.323C25.379 163.323 21.9467 166.592 21.9467 170.624C21.9467 174.655 25.379 177.922 29.6126 177.922C33.8462 177.922 37.2784 174.655 37.2784 170.624ZM50.9327 163.323C55.1662 163.323 58.5985 166.592 58.5985 170.624C58.5985 174.655 55.1662 177.922 50.9327 177.922C46.699 177.922 43.2668 174.655 43.2668 170.624C43.2668 166.592 46.699 163.323 50.9327 163.323ZM79.9185 170.624C79.9185 166.592 76.4863 163.323 72.2527 163.323C68.0191 163.323 64.5868 166.592 64.5868 170.624C64.5868 174.655 68.0191 177.922 72.2527 177.922C76.4863 177.922 79.9185 174.655 79.9185 170.624ZM93.5728 163.323C97.8063 163.323 101.238 166.592 101.238 170.624C101.238 174.655 97.8063 177.922 93.5728 177.922C89.3391 177.922 85.9069 174.655 85.9069 170.624C85.9069 166.592 89.3391 163.323 93.5728 163.323ZM122.558 170.624C122.558 166.592 119.126 163.323 114.892 163.323C110.659 163.323 107.227 166.592 107.227 170.624C107.227 174.655 110.659 177.922 114.892 177.922C119.126 177.922 122.558 174.655 122.558 170.624ZM136.212 163.323C140.446 163.323 143.878 166.592 143.878 170.624C143.878 174.655 140.446 177.922 136.212 177.922C131.979 177.922 128.547 174.655 128.547 170.624C128.547 166.592 131.979 163.323 136.212 163.323ZM164.622 170.624C164.622 166.592 161.189 163.323 156.955 163.323C152.722 163.323 149.29 166.592 149.29 170.624C149.29 174.655 152.722 177.922 156.955 177.922C161.189 177.922 164.622 174.655 164.622 170.624ZM178.276 163.323C182.509 163.323 185.942 166.592 185.942 170.624C185.942 174.655 182.509 177.922 178.276 177.922C174.042 177.922 170.611 174.655 170.611 170.624C170.611 166.592 174.042 163.323 178.276 163.323ZM207.838 170.624C207.838 166.592 204.406 163.323 200.172 163.323C195.938 163.323 192.506 166.592 192.506 170.624C192.506 174.655 195.938 177.922 200.172 177.922C204.406 177.922 207.838 174.655 207.838 170.624ZM221.493 163.323C225.726 163.323 229.157 166.592 229.157 170.624C229.157 174.655 225.726 177.922 221.493 177.922C217.259 177.922 213.826 174.655 213.826 170.624C213.826 166.592 217.259 163.323 221.493 163.323ZM250.478 170.624C250.478 166.592 247.045 163.323 242.812 163.323C238.578 163.323 235.147 166.592 235.147 170.624C235.147 174.655 238.578 177.922 242.812 177.922C247.045 177.922 250.478 174.655 250.478 170.624ZM264.132 163.323C268.366 163.323 271.798 166.592 271.798 170.624C271.798 174.655 268.366 177.922 264.132 177.922C259.899 177.922 256.466 174.655 256.466 170.624C256.466 166.592 259.899 163.323 264.132 163.323ZM293.118 170.624C293.118 166.592 289.685 163.323 285.451 163.323C281.218 163.323 277.786 166.592 277.786 170.624C277.786 174.655 281.218 177.922 285.451 177.922C289.685 177.922 293.118 174.655 293.118 170.624ZM306.196 163.323C310.43 163.323 313.862 166.592 313.862 170.624C313.862 174.655 310.43 177.922 306.196 177.922C301.962 177.922 298.531 174.655 298.531 170.624C298.531 166.592 301.962 163.323 306.196 163.323ZM335.182 170.624C335.182 166.592 331.749 163.323 327.515 163.323C323.282 163.323 319.85 166.592 319.85 170.624C319.85 174.655 323.282 177.922 327.515 177.922C331.749 177.922 335.182 174.655 335.182 170.624ZM348.836 163.323C353.069 163.323 356.502 166.592 356.502 170.624C356.502 174.655 353.069 177.922 348.836 177.922C344.602 177.922 341.17 174.655 341.17 170.624C341.17 166.592 344.602 163.323 348.836 163.323ZM377.821 170.624C377.821 166.592 374.389 163.323 370.155 163.323C365.921 163.323 362.49 166.592 362.49 170.624C362.49 174.655 365.921 177.922 370.155 177.922C374.389 177.922 377.821 174.655 377.821 170.624ZM391.475 163.323C395.709 163.323 399.142 166.592 399.142 170.624C399.142 174.655 395.709 177.922 391.475 177.922C387.242 177.922 383.809 174.655 383.809 170.624C383.809 166.592 387.242 163.323 391.475 163.323ZM421.038 170.624C421.038 166.592 417.605 163.323 413.372 163.323C409.138 163.323 405.705 166.592 405.705 170.624C405.705 174.655 409.138 177.922 413.372 177.922C417.605 177.922 421.038 174.655 421.038 170.624ZM434.115 163.323C438.349 163.323 441.781 166.592 441.781 170.624C441.781 174.655 438.349 177.922 434.115 177.922C429.881 177.922 426.449 174.655 426.449 170.624C426.449 166.592 429.881 163.323 434.115 163.323ZM463.1 170.624C463.1 166.592 459.669 163.323 455.436 163.323C451.202 163.323 447.769 166.592 447.769 170.624C447.769 174.655 451.202 177.922 455.436 177.922C459.669 177.922 463.1 174.655 463.1 170.624ZM476.755 163.323C480.988 163.323 484.421 166.592 484.421 170.624C484.421 174.655 480.988 177.922 476.755 177.922C472.521 177.922 469.09 174.655 469.09 170.624C469.09 166.592 472.521 163.323 476.755 163.323ZM505.742 170.624C505.742 166.592 502.309 163.323 498.075 163.323C493.842 163.323 490.409 166.592 490.409 170.624C490.409 174.655 493.842 177.922 498.075 177.922C502.309 177.922 505.742 174.655 505.742 170.624ZM519.396 163.323C523.63 163.323 527.061 166.592 527.061 170.624C527.061 174.655 523.63 177.922 519.396 177.922C515.162 177.922 511.73 174.655 511.73 170.624C511.73 166.592 515.162 163.323 519.396 163.323ZM548.381 170.624C548.381 166.592 544.949 163.323 540.715 163.323C536.481 163.323 533.049 166.592 533.049 170.624C533.049 174.655 536.481 177.922 540.715 177.922C544.949 177.922 548.381 174.655 548.381 170.624ZM50.9327 183.488C55.1662 183.488 58.5985 186.756 58.5985 190.788C58.5985 194.82 55.1662 198.087 50.9327 198.087C46.699 198.087 43.2668 194.82 43.2668 190.788C43.2668 186.756 46.699 183.488 50.9327 183.488ZM79.9185 190.788C79.9185 186.756 76.4863 183.488 72.2527 183.488C68.0191 183.488 64.5868 186.756 64.5868 190.788C64.5868 194.82 68.0191 198.087 72.2527 198.087C76.4863 198.087 79.9185 194.82 79.9185 190.788ZM93.5728 183.488C97.8063 183.488 101.238 186.756 101.238 190.788C101.238 194.82 97.8063 198.087 93.5728 198.087C89.3391 198.087 85.9069 194.82 85.9069 190.788C85.9069 186.756 89.3391 183.488 93.5728 183.488ZM122.558 190.788C122.558 186.756 119.126 183.488 114.892 183.488C110.659 183.488 107.227 186.756 107.227 190.788C107.227 194.82 110.659 198.087 114.892 198.087C119.126 198.087 122.558 194.82 122.558 190.788ZM136.212 183.488C140.446 183.488 143.878 186.756 143.878 190.788C143.878 194.82 140.446 198.087 136.212 198.087C131.979 198.087 128.547 194.82 128.547 190.788C128.547 186.756 131.979 183.488 136.212 183.488ZM164.622 190.788C164.622 186.756 161.189 183.488 156.955 183.488C152.722 183.488 149.29 186.756 149.29 190.788C149.29 194.82 152.722 198.087 156.955 198.087C161.189 198.087 164.622 194.82 164.622 190.788ZM178.276 183.488C182.509 183.488 185.942 186.756 185.942 190.788C185.942 194.82 182.509 198.087 178.276 198.087C174.042 198.087 170.611 194.82 170.611 190.788C170.611 186.756 174.042 183.488 178.276 183.488ZM207.838 190.788C207.838 186.756 204.406 183.488 200.172 183.488C195.938 183.488 192.506 186.756 192.506 190.788C192.506 194.82 195.938 198.087 200.172 198.087C204.406 198.087 207.838 194.82 207.838 190.788ZM221.493 183.488C225.726 183.488 229.157 186.756 229.157 190.788C229.157 194.82 225.726 198.087 221.493 198.087C217.259 198.087 213.826 194.82 213.826 190.788C213.826 186.756 217.259 183.488 221.493 183.488ZM250.478 190.788C250.478 186.756 247.045 183.488 242.812 183.488C238.578 183.488 235.147 186.756 235.147 190.788C235.147 194.82 238.578 198.087 242.812 198.087C247.045 198.087 250.478 194.82 250.478 190.788ZM264.132 183.488C268.366 183.488 271.798 186.756 271.798 190.788C271.798 194.82 268.366 198.087 264.132 198.087C259.899 198.087 256.466 194.82 256.466 190.788C256.466 186.756 259.899 183.488 264.132 183.488ZM293.118 190.788C293.118 186.756 289.685 183.488 285.451 183.488C281.218 183.488 277.786 186.756 277.786 190.788C277.786 194.82 281.218 198.087 285.451 198.087C289.685 198.087 293.118 194.82 293.118 190.788ZM306.196 183.488C310.43 183.488 313.862 186.756 313.862 190.788C313.862 194.82 310.43 198.087 306.196 198.087C301.962 198.087 298.531 194.82 298.531 190.788C298.531 186.756 301.962 183.488 306.196 183.488ZM335.182 190.788C335.182 186.756 331.749 183.488 327.515 183.488C323.282 183.488 319.85 186.756 319.85 190.788C319.85 194.82 323.282 198.087 327.515 198.087C331.749 198.087 335.182 194.82 335.182 190.788ZM348.836 183.488C353.069 183.488 356.502 186.756 356.502 190.788C356.502 194.82 353.069 198.087 348.836 198.087C344.602 198.087 341.17 194.82 341.17 190.788C341.17 186.756 344.602 183.488 348.836 183.488ZM377.821 190.788C377.821 186.756 374.389 183.488 370.155 183.488C365.921 183.488 362.49 186.756 362.49 190.788C362.49 194.82 365.921 198.087 370.155 198.087C374.389 198.087 377.821 194.82 377.821 190.788ZM391.475 183.488C395.709 183.488 399.142 186.756 399.142 190.788C399.142 194.82 395.709 198.087 391.475 198.087C387.242 198.087 383.809 194.82 383.809 190.788C383.809 186.756 387.242 183.488 391.475 183.488ZM421.038 190.788C421.038 186.756 417.605 183.488 413.372 183.488C409.138 183.488 405.705 186.756 405.705 190.788C405.705 194.82 409.138 198.087 413.372 198.087C417.605 198.087 421.038 194.82 421.038 190.788ZM434.115 183.488C438.349 183.488 441.781 186.756 441.781 190.788C441.781 194.82 438.349 198.087 434.115 198.087C429.881 198.087 426.449 194.82 426.449 190.788C426.449 186.756 429.881 183.488 434.115 183.488ZM463.1 190.788C463.1 186.756 459.669 183.488 455.436 183.488C451.202 183.488 447.769 186.756 447.769 190.788C447.769 194.82 451.202 198.087 455.436 198.087C459.669 198.087 463.1 194.82 463.1 190.788ZM476.755 183.488C480.988 183.488 484.421 186.756 484.421 190.788C484.421 194.82 480.988 198.087 476.755 198.087C472.521 198.087 469.09 194.82 469.09 190.788C469.09 186.756 472.521 183.488 476.755 183.488ZM505.742 190.788C505.742 186.756 502.309 183.488 498.075 183.488C493.842 183.488 490.409 186.756 490.409 190.788C490.409 194.82 493.842 198.087 498.075 198.087C502.309 198.087 505.742 194.82 505.742 190.788ZM519.396 183.488C523.63 183.488 527.061 186.756 527.061 190.788C527.061 194.82 523.63 198.087 519.396 198.087C515.162 198.087 511.73 194.82 511.73 190.788C511.73 186.756 515.162 183.488 519.396 183.488ZM548.381 190.788C548.381 186.756 544.949 183.488 540.715 183.488C536.481 183.488 533.049 186.756 533.049 190.788C533.049 194.82 536.481 198.087 540.715 198.087C544.949 198.087 548.381 194.82 548.381 190.788ZM50.9327 203.789C55.1662 203.789 58.5985 207.058 58.5985 211.09C58.5985 215.121 55.1662 218.388 50.9327 218.388C46.699 218.388 43.2668 215.121 43.2668 211.09C43.2668 207.058 46.699 203.789 50.9327 203.789ZM79.9185 211.09C79.9185 207.058 76.4863 203.789 72.2527 203.789C68.0191 203.789 64.5868 207.058 64.5868 211.09C64.5868 215.121 68.0191 218.388 72.2527 218.388C76.4863 218.388 79.9185 215.121 79.9185 211.09ZM93.5728 203.789C97.8063 203.789 101.238 207.058 101.238 211.09C101.238 215.121 97.8063 218.388 93.5728 218.388C89.3391 218.388 85.9069 215.121 85.9069 211.09C85.9069 207.058 89.3391 203.789 93.5728 203.789ZM122.558 211.09C122.558 207.058 119.126 203.789 114.892 203.789C110.659 203.789 107.227 207.058 107.227 211.09C107.227 215.121 110.659 218.388 114.892 218.388C119.126 218.388 122.558 215.121 122.558 211.09ZM136.212 203.789C140.446 203.789 143.878 207.058 143.878 211.09C143.878 215.121 140.446 218.388 136.212 218.388C131.979 218.388 128.547 215.121 128.547 211.09C128.547 207.058 131.979 203.789 136.212 203.789ZM164.622 211.09C164.622 207.058 161.189 203.789 156.955 203.789C152.722 203.789 149.29 207.058 149.29 211.09C149.29 215.121 152.722 218.388 156.955 218.388C161.189 218.388 164.622 215.121 164.622 211.09ZM178.276 203.789C182.509 203.789 185.942 207.058 185.942 211.09C185.942 215.121 182.509 218.388 178.276 218.388C174.042 218.388 170.611 215.121 170.611 211.09C170.611 207.058 174.042 203.789 178.276 203.789ZM207.838 211.09C207.838 207.058 204.406 203.789 200.172 203.789C195.938 203.789 192.506 207.058 192.506 211.09C192.506 215.121 195.938 218.388 200.172 218.388C204.406 218.388 207.838 215.121 207.838 211.09ZM221.493 203.789C225.726 203.789 229.157 207.058 229.157 211.09C229.157 215.121 225.726 218.388 221.493 218.388C217.259 218.388 213.826 215.121 213.826 211.09C213.826 207.058 217.259 203.789 221.493 203.789ZM250.478 211.09C250.478 207.058 247.045 203.789 242.812 203.789C238.578 203.789 235.147 207.058 235.147 211.09C235.147 215.121 238.578 218.388 242.812 218.388C247.045 218.388 250.478 215.121 250.478 211.09ZM264.132 203.789C268.366 203.789 271.798 207.058 271.798 211.09C271.798 215.121 268.366 218.388 264.132 218.388C259.899 218.388 256.466 215.121 256.466 211.09C256.466 207.058 259.899 203.789 264.132 203.789ZM293.118 211.09C293.118 207.058 289.685 203.789 285.451 203.789C281.218 203.789 277.786 207.058 277.786 211.09C277.786 215.121 281.218 218.388 285.451 218.388C289.685 218.388 293.118 215.121 293.118 211.09ZM306.196 203.789C310.43 203.789 313.862 207.058 313.862 211.09C313.862 215.121 310.43 218.388 306.196 218.388C301.962 218.388 298.531 215.121 298.531 211.09C298.531 207.058 301.962 203.789 306.196 203.789ZM335.182 211.09C335.182 207.058 331.749 203.789 327.515 203.789C323.282 203.789 319.85 207.058 319.85 211.09C319.85 215.121 323.282 218.388 327.515 218.388C331.749 218.388 335.182 215.121 335.182 211.09ZM348.836 203.789C353.069 203.789 356.502 207.058 356.502 211.09C356.502 215.121 353.069 218.388 348.836 218.388C344.602 218.388 341.17 215.121 341.17 211.09C341.17 207.058 344.602 203.789 348.836 203.789ZM377.821 211.09C377.821 207.058 374.389 203.789 370.155 203.789C365.921 203.789 362.49 207.058 362.49 211.09C362.49 215.121 365.921 218.388 370.155 218.388C374.389 218.388 377.821 215.121 377.821 211.09ZM391.475 203.789C395.709 203.789 399.142 207.058 399.142 211.09C399.142 215.121 395.709 218.388 391.475 218.388C387.242 218.388 383.809 215.121 383.809 211.09C383.809 207.058 387.242 203.789 391.475 203.789ZM421.038 211.09C421.038 207.058 417.605 203.789 413.372 203.789C409.138 203.789 405.705 207.058 405.705 211.09C405.705 215.121 409.138 218.388 413.372 218.388C417.605 218.388 421.038 215.121 421.038 211.09ZM434.115 203.789C438.349 203.789 441.781 207.058 441.781 211.09C441.781 215.121 438.349 218.388 434.115 218.388C429.881 218.388 426.449 215.121 426.449 211.09C426.449 207.058 429.881 203.789 434.115 203.789ZM463.1 211.09C463.1 207.058 459.669 203.789 455.436 203.789C451.202 203.789 447.769 207.058 447.769 211.09C447.769 215.121 451.202 218.388 455.436 218.388C459.669 218.388 463.1 215.121 463.1 211.09ZM476.755 203.789C480.988 203.789 484.421 207.058 484.421 211.09C484.421 215.121 480.988 218.388 476.755 218.388C472.521 218.388 469.09 215.121 469.09 211.09C469.09 207.058 472.521 203.789 476.755 203.789ZM505.742 211.09C505.742 207.058 502.309 203.789 498.075 203.789C493.842 203.789 490.409 207.058 490.409 211.09C490.409 215.121 493.842 218.388 498.075 218.388C502.309 218.388 505.742 215.121 505.742 211.09ZM519.396 203.789C523.63 203.789 527.061 207.058 527.061 211.09C527.061 215.121 523.63 218.388 519.396 218.388C515.162 218.388 511.73 215.121 511.73 211.09C511.73 207.058 515.162 203.789 519.396 203.789ZM79.9185 231.255C79.9185 227.223 76.4863 223.954 72.2527 223.954C68.0191 223.954 64.5868 227.223 64.5868 231.255C64.5868 235.286 68.0191 238.555 72.2527 238.555C76.4863 238.555 79.9185 235.286 79.9185 231.255ZM93.5728 223.954C97.8063 223.954 101.238 227.223 101.238 231.255C101.238 235.286 97.8063 238.555 93.5728 238.555C89.3391 238.555 85.9069 235.286 85.9069 231.255C85.9069 227.223 89.3391 223.954 93.5728 223.954ZM122.558 231.255C122.558 227.223 119.126 223.954 114.892 223.954C110.659 223.954 107.227 227.223 107.227 231.255C107.227 235.286 110.659 238.555 114.892 238.555C119.126 238.555 122.558 235.286 122.558 231.255ZM136.212 223.954C140.446 223.954 143.878 227.223 143.878 231.255C143.878 235.286 140.446 238.555 136.212 238.555C131.979 238.555 128.547 235.286 128.547 231.255C128.547 227.223 131.979 223.954 136.212 223.954ZM164.622 231.255C164.622 227.223 161.189 223.954 156.955 223.954C152.722 223.954 149.29 227.223 149.29 231.255C149.29 235.286 152.722 238.555 156.955 238.555C161.189 238.555 164.622 235.286 164.622 231.255ZM178.276 223.954C182.509 223.954 185.942 227.223 185.942 231.255C185.942 235.286 182.509 238.555 178.276 238.555C174.042 238.555 170.611 235.286 170.611 231.255C170.611 227.223 174.042 223.954 178.276 223.954ZM207.838 231.255C207.838 227.223 204.406 223.954 200.172 223.954C195.938 223.954 192.506 227.223 192.506 231.255C192.506 235.286 195.938 238.555 200.172 238.555C204.406 238.555 207.838 235.286 207.838 231.255ZM221.493 223.954C225.726 223.954 229.157 227.223 229.157 231.255C229.157 235.286 225.726 238.555 221.493 238.555C217.259 238.555 213.826 235.286 213.826 231.255C213.826 227.223 217.259 223.954 221.493 223.954ZM250.478 231.255C250.478 227.223 247.045 223.954 242.812 223.954C238.578 223.954 235.147 227.223 235.147 231.255C235.147 235.286 238.578 238.555 242.812 238.555C247.045 238.555 250.478 235.286 250.478 231.255ZM264.132 223.954C268.366 223.954 271.798 227.223 271.798 231.255C271.798 235.286 268.366 238.555 264.132 238.555C259.899 238.555 256.466 235.286 256.466 231.255C256.466 227.223 259.899 223.954 264.132 223.954ZM293.118 231.255C293.118 227.223 289.685 223.954 285.451 223.954C281.218 223.954 277.786 227.223 277.786 231.255C277.786 235.286 281.218 238.555 285.451 238.555C289.685 238.555 293.118 235.286 293.118 231.255ZM306.196 223.954C310.43 223.954 313.862 227.223 313.862 231.255C313.862 235.286 310.43 238.555 306.196 238.555C301.962 238.555 298.531 235.286 298.531 231.255C298.531 227.223 301.962 223.954 306.196 223.954ZM335.182 231.255C335.182 227.223 331.749 223.954 327.515 223.954C323.282 223.954 319.85 227.223 319.85 231.255C319.85 235.286 323.282 238.555 327.515 238.555C331.749 238.555 335.182 235.286 335.182 231.255ZM348.836 223.954C353.069 223.954 356.502 227.223 356.502 231.255C356.502 235.286 353.069 238.555 348.836 238.555C344.602 238.555 341.17 235.286 341.17 231.255C341.17 227.223 344.602 223.954 348.836 223.954ZM377.821 231.255C377.821 227.223 374.389 223.954 370.155 223.954C365.921 223.954 362.49 227.223 362.49 231.255C362.49 235.286 365.921 238.555 370.155 238.555C374.389 238.555 377.821 235.286 377.821 231.255ZM391.475 223.954C395.709 223.954 399.142 227.223 399.142 231.255C399.142 235.286 395.709 238.555 391.475 238.555C387.242 238.555 383.809 235.286 383.809 231.255C383.809 227.223 387.242 223.954 391.475 223.954ZM421.038 231.255C421.038 227.223 417.605 223.954 413.372 223.954C409.138 223.954 405.705 227.223 405.705 231.255C405.705 235.286 409.138 238.555 413.372 238.555C417.605 238.555 421.038 235.286 421.038 231.255ZM434.115 223.954C438.349 223.954 441.781 227.223 441.781 231.255C441.781 235.286 438.349 238.555 434.115 238.555C429.881 238.555 426.449 235.286 426.449 231.255C426.449 227.223 429.881 223.954 434.115 223.954ZM463.1 231.255C463.1 227.223 459.669 223.954 455.436 223.954C451.202 223.954 447.769 227.223 447.769 231.255C447.769 235.286 451.202 238.555 455.436 238.555C459.669 238.555 463.1 235.286 463.1 231.255ZM476.755 223.954C480.988 223.954 484.421 227.223 484.421 231.255C484.421 235.286 480.988 238.555 476.755 238.555C472.521 238.555 469.09 235.286 469.09 231.255C469.09 227.223 472.521 223.954 476.755 223.954ZM505.742 231.255C505.742 227.223 502.309 223.954 498.075 223.954C493.842 223.954 490.409 227.223 490.409 231.255C490.409 235.286 493.842 238.555 498.075 238.555C502.309 238.555 505.742 235.286 505.742 231.255ZM136.212 244.119C140.446 244.119 143.878 247.388 143.878 251.419C143.878 255.451 140.446 258.72 136.212 258.72C131.979 258.72 128.547 255.451 128.547 251.419C128.547 247.388 131.979 244.119 136.212 244.119ZM164.622 251.419C164.622 247.388 161.189 244.119 156.955 244.119C152.722 244.119 149.29 247.388 149.29 251.419C149.29 255.451 152.722 258.72 156.955 258.72C161.189 258.72 164.622 255.451 164.622 251.419ZM178.276 244.119C182.509 244.119 185.942 247.388 185.942 251.419C185.942 255.451 182.509 258.72 178.276 258.72C174.042 258.72 170.611 255.451 170.611 251.419C170.611 247.388 174.042 244.119 178.276 244.119ZM207.838 251.419C207.838 247.388 204.406 244.119 200.172 244.119C195.938 244.119 192.506 247.388 192.506 251.419C192.506 255.451 195.938 258.72 200.172 258.72C204.406 258.72 207.838 255.451 207.838 251.419ZM221.493 244.119C225.726 244.119 229.157 247.388 229.157 251.419C229.157 255.451 225.726 258.72 221.493 258.72C217.259 258.72 213.826 255.451 213.826 251.419C213.826 247.388 217.259 244.119 221.493 244.119ZM250.478 251.419C250.478 247.388 247.045 244.119 242.812 244.119C238.578 244.119 235.147 247.388 235.147 251.419C235.147 255.451 238.578 258.72 242.812 258.72C247.045 258.72 250.478 255.451 250.478 251.419ZM264.132 244.119C268.366 244.119 271.798 247.388 271.798 251.419C271.798 255.451 268.366 258.72 264.132 258.72C259.899 258.72 256.466 255.451 256.466 251.419C256.466 247.388 259.899 244.119 264.132 244.119ZM293.118 251.419C293.118 247.388 289.685 244.119 285.451 244.119C281.218 244.119 277.786 247.388 277.786 251.419C277.786 255.451 281.218 258.72 285.451 258.72C289.685 258.72 293.118 255.451 293.118 251.419ZM306.196 244.119C310.43 244.119 313.862 247.388 313.862 251.419C313.862 255.451 310.43 258.72 306.196 258.72C301.962 258.72 298.531 255.451 298.531 251.419C298.531 247.388 301.962 244.119 306.196 244.119ZM335.182 251.419C335.182 247.388 331.749 244.119 327.515 244.119C323.282 244.119 319.85 247.388 319.85 251.419C319.85 255.451 323.282 258.72 327.515 258.72C331.749 258.72 335.182 255.451 335.182 251.419ZM348.836 244.119C353.069 244.119 356.502 247.388 356.502 251.419C356.502 255.451 353.069 258.72 348.836 258.72C344.602 258.72 341.17 255.451 341.17 251.419C341.17 247.388 344.602 244.119 348.836 244.119ZM377.821 251.419C377.821 247.388 374.389 244.119 370.155 244.119C365.921 244.119 362.49 247.388 362.49 251.419C362.49 255.451 365.921 258.72 370.155 258.72C374.389 258.72 377.821 255.451 377.821 251.419ZM391.475 244.119C395.709 244.119 399.142 247.388 399.142 251.419C399.142 255.451 395.709 258.72 391.475 258.72C387.242 258.72 383.809 255.451 383.809 251.419C383.809 247.388 387.242 244.119 391.475 244.119ZM421.038 251.419C421.038 247.388 417.605 244.119 413.372 244.119C409.138 244.119 405.705 247.388 405.705 251.419C405.705 255.451 409.138 258.72 413.372 258.72C417.605 258.72 421.038 255.451 421.038 251.419ZM434.115 244.119C438.349 244.119 441.781 247.388 441.781 251.419C441.781 255.451 438.349 258.72 434.115 258.72C429.881 258.72 426.449 255.451 426.449 251.419C426.449 247.388 429.881 244.119 434.115 244.119ZM463.1 251.419C463.1 247.388 459.669 244.119 455.436 244.119C451.202 244.119 447.769 247.388 447.769 251.419C447.769 255.451 451.202 258.72 455.436 258.72C459.669 258.72 463.1 255.451 463.1 251.419ZM476.755 244.119C480.988 244.119 484.421 247.388 484.421 251.419C484.421 255.451 480.988 258.72 476.755 258.72C472.521 258.72 469.09 255.451 469.09 251.419C469.09 247.388 472.521 244.119 476.755 244.119ZM505.742 251.419C505.742 247.388 502.309 244.119 498.075 244.119C493.842 244.119 490.409 247.388 490.409 251.419C490.409 255.451 493.842 258.72 498.075 258.72C502.309 258.72 505.742 255.451 505.742 251.419ZM221.493 264.422C225.726 264.422 229.157 267.691 229.157 271.722C229.157 275.753 225.726 279.021 221.493 279.021C217.259 279.021 213.826 275.753 213.826 271.722C213.826 267.691 217.259 264.422 221.493 264.422ZM250.478 271.722C250.478 267.691 247.045 264.422 242.812 264.422C238.578 264.422 235.147 267.691 235.147 271.722C235.147 275.753 238.578 279.021 242.812 279.021C247.045 279.021 250.478 275.753 250.478 271.722ZM264.132 264.422C268.366 264.422 271.798 267.691 271.798 271.722C271.798 275.753 268.366 279.021 264.132 279.021C259.899 279.021 256.466 275.753 256.466 271.722C256.466 267.691 259.899 264.422 264.132 264.422ZM293.118 271.722C293.118 267.691 289.685 264.422 285.451 264.422C281.218 264.422 277.786 267.691 277.786 271.722C277.786 275.753 281.218 279.021 285.451 279.021C289.685 279.021 293.118 275.753 293.118 271.722ZM306.196 264.422C310.43 264.422 313.862 267.691 313.862 271.722C313.862 275.753 310.43 279.021 306.196 279.021C301.962 279.021 298.531 275.753 298.531 271.722C298.531 267.691 301.962 264.422 306.196 264.422ZM335.182 271.722C335.182 267.691 331.749 264.422 327.515 264.422C323.282 264.422 319.85 267.691 319.85 271.722C319.85 275.753 323.282 279.021 327.515 279.021C331.749 279.021 335.182 275.753 335.182 271.722ZM348.836 264.422C353.069 264.422 356.502 267.691 356.502 271.722C356.502 275.753 353.069 279.021 348.836 279.021C344.602 279.021 341.17 275.753 341.17 271.722C341.17 267.691 344.602 264.422 348.836 264.422ZM377.821 271.722C377.821 267.691 374.389 264.422 370.155 264.422C365.921 264.422 362.49 267.691 362.49 271.722C362.49 275.753 365.921 279.021 370.155 279.021C374.389 279.021 377.821 275.753 377.821 271.722ZM391.475 264.422C395.709 264.422 399.142 267.691 399.142 271.722C399.142 275.753 395.709 279.021 391.475 279.021C387.242 279.021 383.809 275.753 383.809 271.722C383.809 267.691 387.242 264.422 391.475 264.422ZM421.038 271.722C421.038 267.691 417.605 264.422 413.372 264.422C409.138 264.422 405.705 267.691 405.705 271.722C405.705 275.753 409.138 279.021 413.372 279.021C417.605 279.021 421.038 275.753 421.038 271.722ZM455.436 264.422C459.669 264.422 463.1 267.691 463.1 271.722C463.1 275.753 459.669 279.021 455.436 279.021C451.202 279.021 447.769 275.753 447.769 271.722C447.769 267.691 451.202 264.422 455.436 264.422ZM484.421 271.722C484.421 267.691 480.988 264.422 476.755 264.422C472.521 264.422 469.09 267.691 469.09 271.722C469.09 275.753 472.521 279.021 476.755 279.021C480.988 279.021 484.421 275.753 484.421 271.722ZM498.075 264.422C502.309 264.422 505.742 267.691 505.742 271.722C505.742 275.753 502.309 279.021 498.075 279.021C493.842 279.021 490.409 275.753 490.409 271.722C490.409 267.691 493.842 264.422 498.075 264.422ZM271.798 292.435C271.798 288.404 268.366 285.135 264.132 285.135C259.899 285.135 256.466 288.404 256.466 292.435C256.466 296.467 259.899 299.736 264.132 299.736C268.366 299.736 271.798 296.467 271.798 292.435ZM285.451 285.135C289.685 285.135 293.118 288.404 293.118 292.435C293.118 296.467 289.685 299.736 285.451 299.736C281.218 299.736 277.786 296.467 277.786 292.435C277.786 288.404 281.218 285.135 285.451 285.135ZM313.862 292.435C313.862 288.404 310.43 285.135 306.196 285.135C301.962 285.135 298.531 288.404 298.531 292.435C298.531 296.467 301.962 299.736 306.196 299.736C310.43 299.736 313.862 296.467 313.862 292.435ZM327.515 285.135C331.749 285.135 335.182 288.404 335.182 292.435C335.182 296.467 331.749 299.736 327.515 299.736C323.282 299.736 319.85 296.467 319.85 292.435C319.85 288.404 323.282 285.135 327.515 285.135ZM399.142 292.435C399.142 288.404 395.709 285.135 391.475 285.135C387.242 285.135 383.809 288.404 383.809 292.435C383.809 296.467 387.242 299.736 391.475 299.736C395.709 299.736 399.142 296.467 399.142 292.435ZM498.075 285.135C502.309 285.135 505.742 288.404 505.742 292.435C505.742 296.467 502.309 299.736 498.075 299.736C493.842 299.736 490.409 296.467 490.409 292.435C490.409 288.404 493.842 285.135 498.075 285.135ZM527.061 292.435C527.061 288.404 523.63 285.135 519.396 285.135C515.162 285.135 511.73 288.404 511.73 292.435C511.73 296.467 515.162 299.736 519.396 299.736C523.63 299.736 527.061 296.467 527.061 292.435ZM285.451 305.438C289.685 305.438 293.118 308.705 293.118 312.737C293.118 316.768 289.685 320.037 285.451 320.037C281.218 320.037 277.786 316.768 277.786 312.737C277.786 308.705 281.218 305.438 285.451 305.438ZM313.862 312.737C313.862 308.705 310.43 305.438 306.196 305.438C301.962 305.438 298.531 308.705 298.531 312.737C298.531 316.768 301.962 320.037 306.196 320.037C310.43 320.037 313.862 316.768 313.862 312.737ZM519.396 305.438C523.63 305.438 527.061 308.705 527.061 312.737C527.061 316.768 523.63 320.037 519.396 320.037C515.162 320.037 511.73 316.768 511.73 312.737C511.73 308.705 515.162 305.438 519.396 305.438ZM313.862 332.901C313.862 328.87 310.43 325.603 306.196 325.603C301.962 325.603 298.531 328.87 298.531 332.901C298.531 336.933 301.962 340.202 306.196 340.202C310.43 340.202 313.862 336.933 313.862 332.901Z" fill="#D62DD9"/>
</mask>
<g mask="url(#mask0)">
<path d="M626.532 -42.3335H-34.5488V383.291H626.532V-42.3335Z" fill="url(#paint0_linear)"/>
</g>
<defs>
<linearGradient id="paint0_linear" x1="485.764" y1="-17.9487" x2="25.0033" y2="82.0362" gradientUnits="userSpaceOnUse">
<stop stop-color="#F7BF48"/>
<stop offset="1" stop-color="#D96A2C"/>
</linearGradient>
</defs>
</svg>
