<svg width="24" height="24" viewBox="0 0 24 24" fill="none" xmlns="http://www.w3.org/2000/svg">
<path fill-rule="evenodd" clip-rule="evenodd" d="M17.5253 7.70711C17.9158 7.31658 17.9158 6.68342 17.5253 6.29289C17.1348 5.90237 16.5016 5.90237 16.1111 6.29289L11.9091 10.4949L7.70711 6.29289C7.31658 5.90237 6.68342 5.90237 6.29289 6.29289C5.90237 6.68342 5.90237 7.31658 6.29289 7.70711L10.4949 11.9091L6.29289 16.1111C5.90237 16.5016 5.90237 17.1348 6.29289 17.5253C6.68342 17.9158 7.31658 17.9158 7.70711 17.5253L11.9091 13.3233L16.1111 17.5253C16.5016 17.9158 17.1348 17.9158 17.5253 17.5253C17.9158 17.1348 17.9158 16.5016 17.5253 16.1111L13.3233 11.9091L17.5253 7.70711Z" fill="url(#paint0_linear)"/>
<defs>
<linearGradient id="paint0_linear" x1="15.6023" y1="7.23106" x2="8.58523" y2="16.5871" gradientUnits="userSpaceOnUse">
<stop stop-color="#3B62EC"/>
<stop offset="1" stop-color="#9E3BEC"/>
</linearGradient>
</defs>
</svg>
